<?xml version="1.0" encoding="UTF-8"?>
<svg id="Symbol_Shape" data-name="Symbol Shape" xmlns="http://www.w3.org/2000/svg" viewBox="0 0 1920 1080">
  <defs>
    <style>
      .cls-1 {
        font-family: AcuminConcept-Regular, 'Acumin Variable Concept';
        font-size: 89.57px;
        font-variation-settings: 'wght' 400, 'wdth' 100, 'slnt' 0;
      }

      .cls-2 {
        fill: #0165ff;
      }

      .cls-3 {
        letter-spacing: 0em;
      }

      .cls-4 {
        letter-spacing: 0em;
      }

      .cls-5 {
        letter-spacing: -.02em;
      }

      .cls-6 {
        letter-spacing: -.02em;
      }

      .cls-7 {
        letter-spacing: 0em;
      }

      .cls-8 {
        letter-spacing: 0em;
      }

      .cls-9 {
        letter-spacing: 0em;
      }

      .cls-10 {
        fill: #ffc30c;
      }

      .cls-11 {
        letter-spacing: 0em;
      }

      .cls-12 {
        letter-spacing: .01em;
      }

      .cls-13 {
        letter-spacing: 0em;
      }
    </style>
  </defs>
  <g>
    <g>
      <path d="M649.87,468.16h35.27v129.4h-35.27v-129.4Z"/>
      <path d="M719.88,468.16h32.67v15.56c3.8-5.36,8.73-9.64,14.78-12.84,6.05-3.2,12.1-4.8,18.15-4.8h15.56c13.83,0,24.94,4.32,33.32,12.97,8.38,8.65,12.58,20.06,12.58,34.23v84.28h-35.27v-82.98c0-5.36-1.43-9.68-4.28-12.97-2.85-3.28-6.53-4.93-11.02-4.93h-15.56c-6.05,0-11.45,2.2-16.21,6.61-4.76,4.41-7.91,10.16-9.47,17.24v77.02h-35.27v-129.4Z"/>
      <path d="M875.47,468.16h32.67v15.56c3.8-5.36,8.73-9.64,14.78-12.84,6.05-3.2,12.1-4.8,18.15-4.8h15.56c13.83,0,24.94,4.32,33.32,12.97,8.38,8.65,12.58,20.06,12.58,34.23v84.28h-35.27v-82.98c0-5.36-1.43-9.68-4.28-12.97-2.85-3.28-6.53-4.93-11.02-4.93h-15.56c-6.05,0-11.45,2.2-16.21,6.61-4.76,4.41-7.91,10.16-9.47,17.24v77.02h-35.27v-129.4Z"/>
      <path d="M1052.2,593.28c-8.39-4.23-14.87-10.24-19.45-18.02-4.58-7.78-6.87-16.77-6.87-26.97v-30.34c0-10.2,2.33-19.23,7-27.1,4.67-7.86,11.19-13.96,19.58-18.28,8.38-4.32,18.02-6.48,28.91-6.48h23.34c10.89,0,20.53,2.16,28.91,6.48,8.38,4.32,14.91,10.42,19.58,18.28,4.67,7.87,7,16.9,7,27.1v30.34c0,10.2-2.33,19.19-7,26.97-4.67,7.78-11.2,13.79-19.58,18.02-8.39,4.24-18.11,6.35-29.17,6.35h-23.34c-10.89,0-20.53-2.12-28.91-6.35ZM1103.93,569.3c6.39,0,11.5-2.2,15.3-6.61,3.8-4.41,5.71-10.15,5.71-17.24v-25.15c0-7.09-1.9-12.84-5.71-17.24-3.8-4.41-8.82-6.61-15.04-6.61h-22.3c-6.22,0-11.24,2.2-15.04,6.61-3.8,4.41-5.71,10.16-5.71,17.24v25.15c0,7.09,1.9,12.84,5.71,17.24,3.8,4.41,8.73,6.61,14.78,6.61h22.3Z"/>
      <path d="M1237.18,587.84c-7.18-6.48-10.76-16.55-10.76-30.21v-141.59h35.27v139.51c0,4.15.95,7.18,2.85,9.08,1.9,1.9,4.93,2.85,9.08,2.85h14v30.08h-16.6c-15.39,0-26.67-3.24-33.84-9.72Z"/>
      <path d="M1311.48,589.52c-8.3-6.74-12.45-15.64-12.45-26.71v-9.6c0-10.89,4.32-19.66,12.97-26.32,8.64-6.65,20.05-9.98,34.23-9.98h15.82c4.49,0,9.34.61,14.52,1.82,5.19,1.21,9.94,2.85,14.26,4.93v-13.48c0-4.32-1.43-7.82-4.28-10.5-2.85-2.68-6.61-4.02-11.28-4.02h-22.3c-4.84,0-8.73,1.13-11.67,3.37-2.94,2.25-4.41,5.28-4.41,9.08h-34.23c0-12.62,4.62-22.78,13.87-30.47,9.25-7.69,21.39-11.54,36.43-11.54h22.3c15.21,0,27.49,4.02,36.82,12.06,9.34,8.04,14,18.72,14,32.03v87.39h-32.67v-15.56c-4.15,5.36-9.25,9.64-15.3,12.84-6.05,3.2-12.02,4.8-17.89,4.8h-16.08c-13.48,0-24.38-3.37-32.67-10.11ZM1362.82,572.67c6.39,0,12.1-1.64,17.11-4.93,5.01-3.28,8.64-7.69,10.89-13.23v-4.41c-2.77-2.07-6.61-3.72-11.54-4.93-4.93-1.21-10.16-1.82-15.69-1.82h-16.34c-4.15,0-7.52,1.04-10.11,3.11s-3.89,4.84-3.89,8.3v6.74c0,3.29,1.43,5.96,4.28,8.04,2.85,2.07,6.61,3.11,11.28,3.11h14Z"/>
      <path d="M1500.78,594.45c-5.54-3.46-10.03-7.95-13.48-13.48v16.6h-32.67v-181.52h35.27v62.24c3.46-3.63,7.73-6.57,12.84-8.82,5.1-2.24,9.98-3.37,14.65-3.37h18.15c10.02,0,18.89,2.12,26.58,6.35,7.69,4.24,13.65,10.24,17.89,18.02,4.23,7.78,6.35,16.77,6.35,26.97v29.56c0,10.37-2.16,19.54-6.48,27.49-4.32,7.95-10.37,14.13-18.15,18.54-7.78,4.41-16.69,6.61-26.71,6.61h-17.89c-5.36,0-10.81-1.73-16.34-5.19ZM1530.86,568.78c6.05,0,10.93-2.25,14.65-6.74,3.72-4.49,5.58-10.37,5.58-17.63v-24.38c0-6.91-1.82-12.49-5.45-16.73-3.63-4.23-8.39-6.35-14.26-6.35h-16.08c-6.92,0-12.71,2.42-17.37,7.26-4.67,4.84-7.35,11.24-8.04,19.19v22.3c1.21,6.92,4.02,12.49,8.43,16.73,4.41,4.24,9.64,6.35,15.69,6.35h16.85Z"/>
    </g>
    <rect x="648.49" y="416.98" width="38.03" height="38.03" rx="13.94" ry="13.94"/>
  </g>
  <g>
    <g>
      <g>
        <g>
          <path class="cls-10" d="M311.3,683.01c-20.07-11.39-26.42-37.39-14.44-56.99,11.73-19.17,37.67-24.9,56.6-12.9,7.15,4.53,11.54,12.13,18.9,16.95,16.95,11.09,40.25,9.98,55.55-3.41,3.71-3.24,6.79-7.63,10.62-10.72,22.1-17.81,55.41-7.42,64.26,19.62,9.49,29.01-16.83,58.48-46.54,52.4-12.32-2.52-17.02-7.64-25.27-16.07-17.02-17.4-44.54-19.06-63.1-3.56-4.92,4.11-8.13,9.3-13.57,12.96-12.47,8.41-29.82,9.21-43.01,1.72Z"/>
          <path class="cls-10" d="M255.69,581.33c-28.29-12.99-31.24-51.64-4.69-68.32,10.74-6.75,24.62-7.4,36.2-2.47,10.86,4.63,16.03,15.34,26.05,20.69,16.09,8.59,35.51,7.12,49.6-4.48,3.22-2.65,5.44-5.79,8.35-8.58,18.24-17.53,49.1-12.37,60.94,10.03,16.84,31.86-14.58,66.52-48.33,54.3-9.51-3.44-12.03-8.45-18.7-14.75-17.14-16.18-44.44-16.31-61.24.21-3.63,3.57-6,6.99-10.35,9.93-11.09,7.48-25.54,9.09-37.83,3.45Z"/>
          <path class="cls-10" d="M318.51,480.76c-13.46-6.26-23.04-21.05-22.62-35.9.87-31.06,35.36-48.48,61-31.33,6.19,4.14,9.86,10.76,16.55,15.21,13.08,8.72,29.45,9.89,43.62,3.26,9.19-4.3,12.88-10.56,20.42-16.51,15.69-12.38,36.79-10.79,51.32,3.14,8.8,8.44,13.03,23.34,10.38,35.27-6.82,30.74-44.92,41.09-66.63,18.18-.94-.99-1.6-2.26-2.64-3.32-18.03-18.4-45.8-18.18-63.86-.27-1.42,1.4-2.57,3.2-3.98,4.58-11.28,11.04-29.18,14.37-43.55,7.68Z"/>
          <path class="cls-10" d="M508,581.35c-18.43-8.87-26.52-33.09-17.67-51.39,15.16-31.34,60.95-28.4,71.9,4.75,10.82,32.77-23.33,61.52-54.23,46.64Z"/>
        </g>
        <g>
          <path class="cls-10" d="M311.3,683.01c-20.07-11.39-26.42-37.39-14.44-56.99,11.73-19.17,37.67-24.9,56.6-12.9,7.15,4.53,11.54,12.13,18.9,16.95,16.95,11.09,40.25,9.98,55.55-3.41,3.71-3.24,6.79-7.63,10.62-10.72,22.1-17.81,55.41-7.42,64.26,19.62,9.49,29.01-16.83,58.48-46.54,52.4-12.32-2.52-17.02-7.64-25.27-16.07-17.02-17.4-44.54-19.06-63.1-3.56-4.92,4.11-8.13,9.3-13.57,12.96-12.47,8.41-29.82,9.21-43.01,1.72Z"/>
          <path class="cls-10" d="M255.69,581.33c-28.29-12.99-31.24-51.64-4.69-68.32,10.74-6.75,24.62-7.4,36.2-2.47,10.86,4.63,16.03,15.34,26.05,20.69,16.09,8.59,35.51,7.12,49.6-4.48,3.22-2.65,5.44-5.79,8.35-8.58,18.24-17.53,49.1-12.37,60.94,10.03,16.84,31.86-14.58,66.52-48.33,54.3-9.51-3.44-12.03-8.45-18.7-14.75-17.14-16.18-44.44-16.31-61.24.21-3.63,3.57-6,6.99-10.35,9.93-11.09,7.48-25.54,9.09-37.83,3.45Z"/>
          <path class="cls-10" d="M318.51,480.76c-13.46-6.26-23.04-21.05-22.62-35.9.87-31.06,35.36-48.48,61-31.33,6.19,4.14,9.86,10.76,16.55,15.21,13.08,8.72,29.45,9.89,43.62,3.26,9.19-4.3,12.88-10.56,20.42-16.51,15.69-12.38,36.79-10.79,51.32,3.14,8.8,8.44,13.03,23.34,10.38,35.27-6.82,30.74-44.92,41.09-66.63,18.18-.94-.99-1.6-2.26-2.64-3.32-18.03-18.4-45.8-18.18-63.86-.27-1.42,1.4-2.57,3.2-3.98,4.58-11.28,11.04-29.18,14.37-43.55,7.68Z"/>
          <path class="cls-10" d="M508,581.35c-18.43-8.87-26.52-33.09-17.67-51.39,15.16-31.34,60.95-28.4,71.9,4.75,10.82,32.77-23.33,61.52-54.23,46.64Z"/>
        </g>
        <g>
          <path class="cls-10" d="M311.3,683.01c-20.07-11.39-26.42-37.39-14.44-56.99,11.73-19.17,37.67-24.9,56.6-12.9,7.15,4.53,11.54,12.13,18.9,16.95,16.95,11.09,40.25,9.98,55.55-3.41,3.71-3.24,6.79-7.63,10.62-10.72,22.1-17.81,55.41-7.42,64.26,19.62,9.49,29.01-16.83,58.48-46.54,52.4-12.32-2.52-17.02-7.64-25.27-16.07-17.02-17.4-44.54-19.06-63.1-3.56-4.92,4.11-8.13,9.3-13.57,12.96-12.47,8.41-29.82,9.21-43.01,1.72Z"/>
          <path class="cls-10" d="M255.69,581.33c-28.29-12.99-31.24-51.64-4.69-68.32,10.74-6.75,24.62-7.4,36.2-2.47,10.86,4.63,16.03,15.34,26.05,20.69,16.09,8.59,35.51,7.12,49.6-4.48,3.22-2.65,5.44-5.79,8.35-8.58,18.24-17.53,49.1-12.37,60.94,10.03,16.84,31.86-14.58,66.52-48.33,54.3-9.51-3.44-12.03-8.45-18.7-14.75-17.14-16.18-44.44-16.31-61.24.21-3.63,3.57-6,6.99-10.35,9.93-11.09,7.48-25.54,9.09-37.83,3.45Z"/>
          <path class="cls-10" d="M318.51,480.76c-13.46-6.26-23.04-21.05-22.62-35.9.87-31.06,35.36-48.48,61-31.33,6.19,4.14,9.86,10.76,16.55,15.21,13.08,8.72,29.45,9.89,43.62,3.26,9.19-4.3,12.88-10.56,20.42-16.51,15.69-12.38,36.79-10.79,51.32,3.14,8.8,8.44,13.03,23.34,10.38,35.27-6.82,30.74-44.92,41.09-66.63,18.18-.94-.99-1.6-2.26-2.64-3.32-18.03-18.4-45.8-18.18-63.86-.27-1.42,1.4-2.57,3.2-3.98,4.58-11.28,11.04-29.18,14.37-43.55,7.68Z"/>
          <path class="cls-10" d="M508,581.35c-18.43-8.87-26.52-33.09-17.67-51.39,15.16-31.34,60.95-28.4,71.9,4.75,10.82,32.77-23.33,61.52-54.23,46.64Z"/>
        </g>
      </g>
      <path class="cls-10" d="M514.29,504.12h22.44c17.01,0,30.81,13.81,30.81,30.81v22.44c0,17.01-13.81,30.81-30.81,30.81h-22.44c-17.01,0-30.81-13.81-30.81-30.81v-22.44c0-17.01,13.81-30.81,30.81-30.81Z"/>
    </g>
    <g>
      <g>
        <g>
          <path class="cls-10" d="M311.3,683.01c-20.07-11.39-26.42-37.39-14.44-56.99,11.73-19.17,37.67-24.9,56.6-12.9,7.15,4.53,11.54,12.13,18.9,16.95,16.95,11.09,40.25,9.98,55.55-3.41,3.71-3.24,6.79-7.63,10.62-10.72,22.1-17.81,55.41-7.42,64.26,19.62,9.49,29.01-16.83,58.48-46.54,52.4-12.32-2.52-17.02-7.64-25.27-16.07-17.02-17.4-44.54-19.06-63.1-3.56-4.92,4.11-8.13,9.3-13.57,12.96-12.47,8.41-29.82,9.21-43.01,1.72Z"/>
          <path class="cls-10" d="M255.69,581.33c-28.29-12.99-31.24-51.64-4.69-68.32,10.74-6.75,24.62-7.4,36.2-2.47,10.86,4.63,16.03,15.34,26.05,20.69,16.09,8.59,35.51,7.12,49.6-4.48,3.22-2.65,5.44-5.79,8.35-8.58,18.24-17.53,49.1-12.37,60.94,10.03,16.84,31.86-14.58,66.52-48.33,54.3-9.51-3.44-12.03-8.45-18.7-14.75-17.14-16.18-44.44-16.31-61.24.21-3.63,3.57-6,6.99-10.35,9.93-11.09,7.48-25.54,9.09-37.83,3.45Z"/>
          <path class="cls-10" d="M318.51,480.76c-13.46-6.26-23.04-21.05-22.62-35.9.87-31.06,35.36-48.48,61-31.33,6.19,4.14,9.86,10.76,16.55,15.21,13.08,8.72,29.45,9.89,43.62,3.26,9.19-4.3,12.88-10.56,20.42-16.51,15.69-12.38,36.79-10.79,51.32,3.14,8.8,8.44,13.03,23.34,10.38,35.27-6.82,30.74-44.92,41.09-66.63,18.18-.94-.99-1.6-2.26-2.64-3.32-18.03-18.4-45.8-18.18-63.86-.27-1.42,1.4-2.57,3.2-3.98,4.58-11.28,11.04-29.18,14.37-43.55,7.68Z"/>
          <path class="cls-10" d="M508,581.35c-18.43-8.87-26.52-33.09-17.67-51.39,15.16-31.34,60.95-28.4,71.9,4.75,10.82,32.77-23.33,61.52-54.23,46.64Z"/>
        </g>
        <g>
          <path class="cls-10" d="M311.3,683.01c-20.07-11.39-26.42-37.39-14.44-56.99,11.73-19.17,37.67-24.9,56.6-12.9,7.15,4.53,11.54,12.13,18.9,16.95,16.95,11.09,40.25,9.98,55.55-3.41,3.71-3.24,6.79-7.63,10.62-10.72,22.1-17.81,55.41-7.42,64.26,19.62,9.49,29.01-16.83,58.48-46.54,52.4-12.32-2.52-17.02-7.64-25.27-16.07-17.02-17.4-44.54-19.06-63.1-3.56-4.92,4.11-8.13,9.3-13.57,12.96-12.47,8.41-29.82,9.21-43.01,1.72Z"/>
          <path class="cls-10" d="M255.69,581.33c-28.29-12.99-31.24-51.64-4.69-68.32,10.74-6.75,24.62-7.4,36.2-2.47,10.86,4.63,16.03,15.34,26.05,20.69,16.09,8.59,35.51,7.12,49.6-4.48,3.22-2.65,5.44-5.79,8.35-8.58,18.24-17.53,49.1-12.37,60.94,10.03,16.84,31.86-14.58,66.52-48.33,54.3-9.51-3.44-12.03-8.45-18.7-14.75-17.14-16.18-44.44-16.31-61.24.21-3.63,3.57-6,6.99-10.35,9.93-11.09,7.48-25.54,9.09-37.83,3.45Z"/>
          <path class="cls-10" d="M318.51,480.76c-13.46-6.26-23.04-21.05-22.62-35.9.87-31.06,35.36-48.48,61-31.33,6.19,4.14,9.86,10.76,16.55,15.21,13.08,8.72,29.45,9.89,43.62,3.26,9.19-4.3,12.88-10.56,20.42-16.51,15.69-12.38,36.79-10.79,51.32,3.14,8.8,8.44,13.03,23.34,10.38,35.27-6.82,30.74-44.92,41.09-66.63,18.18-.94-.99-1.6-2.26-2.64-3.32-18.03-18.4-45.8-18.18-63.86-.27-1.42,1.4-2.57,3.2-3.98,4.58-11.28,11.04-29.18,14.37-43.55,7.68Z"/>
          <path class="cls-2" d="M508,581.35c-18.43-8.87-26.52-33.09-17.67-51.39,15.16-31.34,60.95-28.4,71.9,4.75,10.82,32.77-23.33,61.52-54.23,46.64Z"/>
        </g>
      </g>
      <path class="cls-2" d="M514.29,504.12h22.44c17.01,0,30.81,13.81,30.81,30.81v22.44c0,17.01-13.81,30.81-30.81,30.81h-22.44c-17.01,0-30.81-13.81-30.81-30.81v-22.44c0-17.01,13.81-30.81,30.81-30.81Z"/>
    </g>
  </g>
  <text class="cls-1" transform="translate(648.49 692.72)"><tspan class="cls-3" x="0" y="0">s</tspan><tspan class="cls-11" x="42.46" y="0">o</tspan><tspan class="cls-5" x="92.17" y="0">f</tspan><tspan class="cls-13" x="115.63" y="0">t</tspan><tspan class="cls-6" x="145.01" y="0">w</tspan><tspan x="211.92" y="0">a</tspan><tspan class="cls-9" x="259.31" y="0">r</tspan><tspan class="cls-7" x="290.12" y="0">e</tspan><tspan x="336.61" y="0"> </tspan><tspan class="cls-3" x="359.27" y="0">s</tspan><tspan class="cls-4" x="401.73" y="0">ol</tspan><tspan class="cls-12" x="472.22" y="0">u</tspan><tspan class="cls-8" x="523.09" y="0">t</tspan><tspan x="551.31" y="0">ion</tspan></text>
</svg>